<mxfile host="Electron" modified="2024-03-08T13:08:47.919Z" agent="Mozilla/5.0 (X11; Linux x86_64) AppleWebKit/537.36 (KHTML, like Gecko) draw.io/22.1.21 Chrome/120.0.6099.109 Electron/28.1.0 Safari/537.36" etag="dmbuXanymxQBiVnCwSvS" version="22.1.21" type="device">
  <diagram name="StrÃ¡nka-1" id="GyioWlBoCfakcLnPtcch">
    <mxGraphModel dx="1419" dy="1172" grid="1" gridSize="10" guides="1" tooltips="1" connect="1" arrows="1" fold="1" page="1" pageScale="1" pageWidth="1654" pageHeight="2336" math="1" shadow="0">
      <root>
        <mxCell id="0" />
        <mxCell id="1" parent="0" />
        <mxCell id="xDKq-XSVcTtl9me8uJHc-52" value="" style="rounded=1;whiteSpace=wrap;html=1;strokeWidth=3;" vertex="1" parent="1">
          <mxGeometry x="354.91" y="560" width="960" height="260" as="geometry" />
        </mxCell>
        <mxCell id="xDKq-XSVcTtl9me8uJHc-50" value="" style="rounded=1;whiteSpace=wrap;html=1;strokeWidth=3;" vertex="1" parent="1">
          <mxGeometry x="519.82" y="240" width="610" height="260" as="geometry" />
        </mxCell>
        <mxCell id="xDKq-XSVcTtl9me8uJHc-7" style="edgeStyle=orthogonalEdgeStyle;rounded=0;orthogonalLoop=1;jettySize=auto;html=1;entryX=0;entryY=0.5;entryDx=0;entryDy=0;strokeWidth=3;" edge="1" parent="1" source="xDKq-XSVcTtl9me8uJHc-1" target="xDKq-XSVcTtl9me8uJHc-2">
          <mxGeometry relative="1" as="geometry" />
        </mxCell>
        <mxCell id="xDKq-XSVcTtl9me8uJHc-1" value="&lt;font style=&quot;font-size: 16px;&quot;&gt;Encoder &lt;br&gt;RNN&lt;/font&gt;" style="rounded=1;whiteSpace=wrap;html=1;strokeWidth=3;fillColor=#dae8fc;strokeColor=#6c8ebf;" vertex="1" parent="1">
          <mxGeometry x="574.82" y="380" width="120" height="60" as="geometry" />
        </mxCell>
        <mxCell id="xDKq-XSVcTtl9me8uJHc-8" style="edgeStyle=orthogonalEdgeStyle;rounded=0;orthogonalLoop=1;jettySize=auto;html=1;strokeWidth=3;" edge="1" parent="1" source="xDKq-XSVcTtl9me8uJHc-2" target="xDKq-XSVcTtl9me8uJHc-3">
          <mxGeometry relative="1" as="geometry" />
        </mxCell>
        <mxCell id="xDKq-XSVcTtl9me8uJHc-2" value="&lt;font style=&quot;font-size: 16px;&quot;&gt;Encoder&lt;br style=&quot;border-color: var(--border-color);&quot;&gt;RNN&lt;/font&gt;" style="rounded=1;whiteSpace=wrap;html=1;strokeWidth=3;fillColor=#dae8fc;strokeColor=#6c8ebf;" vertex="1" parent="1">
          <mxGeometry x="764.82" y="380" width="120" height="60" as="geometry" />
        </mxCell>
        <mxCell id="xDKq-XSVcTtl9me8uJHc-9" style="edgeStyle=orthogonalEdgeStyle;rounded=1;orthogonalLoop=1;jettySize=auto;html=1;entryX=0;entryY=0.5;entryDx=0;entryDy=0;curved=0;strokeWidth=3;dashed=1;exitX=1;exitY=0.5;exitDx=0;exitDy=0;" edge="1" parent="1" source="xDKq-XSVcTtl9me8uJHc-3" target="xDKq-XSVcTtl9me8uJHc-4">
          <mxGeometry relative="1" as="geometry">
            <mxPoint x="910" y="330" as="sourcePoint" />
            <Array as="points">
              <mxPoint x="1075" y="400" />
              <mxPoint x="1160" y="400" />
              <mxPoint x="1160" y="530" />
              <mxPoint x="320" y="530" />
              <mxPoint x="320" y="730" />
            </Array>
          </mxGeometry>
        </mxCell>
        <mxCell id="xDKq-XSVcTtl9me8uJHc-54" value="&lt;font style=&quot;font-size: 20px;&quot;&gt;&lt;b&gt;Context vector&lt;/b&gt;&lt;/font&gt;" style="edgeLabel;html=1;align=center;verticalAlign=middle;resizable=0;points=[];labelBorderColor=none;labelBackgroundColor=#FFFFFF;spacingTop=0;spacingLeft=10;spacingRight=10;" vertex="1" connectable="0" parent="xDKq-XSVcTtl9me8uJHc-9">
          <mxGeometry x="0.099" relative="1" as="geometry">
            <mxPoint x="62" as="offset" />
          </mxGeometry>
        </mxCell>
        <mxCell id="xDKq-XSVcTtl9me8uJHc-3" value="&lt;font style=&quot;font-size: 16px;&quot;&gt;Encoder&lt;br style=&quot;border-color: var(--border-color);&quot;&gt;RNN&lt;/font&gt;" style="rounded=1;whiteSpace=wrap;html=1;strokeWidth=3;fillColor=#dae8fc;strokeColor=#6c8ebf;" vertex="1" parent="1">
          <mxGeometry x="954.82" y="380" width="120" height="60" as="geometry" />
        </mxCell>
        <mxCell id="xDKq-XSVcTtl9me8uJHc-10" style="edgeStyle=orthogonalEdgeStyle;rounded=0;orthogonalLoop=1;jettySize=auto;html=1;entryX=0;entryY=0.5;entryDx=0;entryDy=0;strokeWidth=3;" edge="1" parent="1" source="xDKq-XSVcTtl9me8uJHc-4" target="xDKq-XSVcTtl9me8uJHc-5">
          <mxGeometry relative="1" as="geometry" />
        </mxCell>
        <mxCell id="xDKq-XSVcTtl9me8uJHc-49" style="edgeStyle=orthogonalEdgeStyle;rounded=0;orthogonalLoop=1;jettySize=auto;html=1;strokeWidth=3;" edge="1" parent="1" source="xDKq-XSVcTtl9me8uJHc-4" target="xDKq-XSVcTtl9me8uJHc-24">
          <mxGeometry relative="1" as="geometry" />
        </mxCell>
        <mxCell id="xDKq-XSVcTtl9me8uJHc-4" value="&lt;font style=&quot;font-size: 16px;&quot;&gt;Decoder &lt;br&gt;RNN&lt;/font&gt;" style="rounded=1;whiteSpace=wrap;html=1;strokeWidth=3;fillColor=#ffe6cc;strokeColor=#d79b00;" vertex="1" parent="1">
          <mxGeometry x="384.82000000000005" y="700" width="120" height="60" as="geometry" />
        </mxCell>
        <mxCell id="xDKq-XSVcTtl9me8uJHc-11" style="edgeStyle=orthogonalEdgeStyle;rounded=0;orthogonalLoop=1;jettySize=auto;html=1;entryX=0;entryY=0.5;entryDx=0;entryDy=0;strokeWidth=3;" edge="1" parent="1" source="xDKq-XSVcTtl9me8uJHc-5" target="xDKq-XSVcTtl9me8uJHc-6">
          <mxGeometry relative="1" as="geometry" />
        </mxCell>
        <mxCell id="xDKq-XSVcTtl9me8uJHc-48" style="edgeStyle=orthogonalEdgeStyle;rounded=0;orthogonalLoop=1;jettySize=auto;html=1;strokeWidth=3;" edge="1" parent="1" source="xDKq-XSVcTtl9me8uJHc-5" target="xDKq-XSVcTtl9me8uJHc-25">
          <mxGeometry relative="1" as="geometry" />
        </mxCell>
        <mxCell id="xDKq-XSVcTtl9me8uJHc-5" value="&lt;font style=&quot;font-size: 16px;&quot;&gt;Decoder&lt;br style=&quot;border-color: var(--border-color);&quot;&gt;RNN&lt;/font&gt;" style="rounded=1;whiteSpace=wrap;html=1;strokeWidth=3;fillColor=#ffe6cc;strokeColor=#d79b00;" vertex="1" parent="1">
          <mxGeometry x="574.82" y="700" width="120" height="60" as="geometry" />
        </mxCell>
        <mxCell id="xDKq-XSVcTtl9me8uJHc-29" style="edgeStyle=orthogonalEdgeStyle;rounded=0;orthogonalLoop=1;jettySize=auto;html=1;entryX=0;entryY=0.5;entryDx=0;entryDy=0;strokeWidth=3;" edge="1" parent="1" source="xDKq-XSVcTtl9me8uJHc-6" target="xDKq-XSVcTtl9me8uJHc-28">
          <mxGeometry relative="1" as="geometry" />
        </mxCell>
        <mxCell id="xDKq-XSVcTtl9me8uJHc-47" style="edgeStyle=orthogonalEdgeStyle;rounded=0;orthogonalLoop=1;jettySize=auto;html=1;strokeWidth=3;" edge="1" parent="1" source="xDKq-XSVcTtl9me8uJHc-6" target="xDKq-XSVcTtl9me8uJHc-26">
          <mxGeometry relative="1" as="geometry" />
        </mxCell>
        <mxCell id="xDKq-XSVcTtl9me8uJHc-6" value="&lt;font style=&quot;font-size: 16px;&quot;&gt;Decoder&lt;br style=&quot;border-color: var(--border-color);&quot;&gt;RNN&lt;/font&gt;" style="rounded=1;whiteSpace=wrap;html=1;strokeWidth=3;fillColor=#ffe6cc;strokeColor=#d79b00;" vertex="1" parent="1">
          <mxGeometry x="764.82" y="700" width="120" height="60" as="geometry" />
        </mxCell>
        <mxCell id="xDKq-XSVcTtl9me8uJHc-12" value="\(T_1\)&lt;br style=&quot;font-size: 21px;&quot;&gt;" style="text;html=1;strokeColor=none;fillColor=none;align=center;verticalAlign=middle;whiteSpace=wrap;rounded=0;fontSize=21;strokeWidth=3;" vertex="1" parent="1">
          <mxGeometry x="604.82" y="450" width="60" height="30" as="geometry" />
        </mxCell>
        <mxCell id="xDKq-XSVcTtl9me8uJHc-14" value="\(T_2\)" style="text;html=1;strokeColor=none;fillColor=none;align=center;verticalAlign=middle;whiteSpace=wrap;rounded=0;fontSize=21;strokeWidth=3;" vertex="1" parent="1">
          <mxGeometry x="794.82" y="450" width="60" height="30" as="geometry" />
        </mxCell>
        <mxCell id="xDKq-XSVcTtl9me8uJHc-15" value="\(T_3\)" style="text;html=1;strokeColor=none;fillColor=none;align=center;verticalAlign=middle;whiteSpace=wrap;rounded=0;fontSize=21;strokeWidth=3;" vertex="1" parent="1">
          <mxGeometry x="984.82" y="450" width="60" height="30" as="geometry" />
        </mxCell>
        <mxCell id="xDKq-XSVcTtl9me8uJHc-16" value="\(T_4\)" style="text;html=1;strokeColor=none;fillColor=none;align=center;verticalAlign=middle;whiteSpace=wrap;rounded=0;fontSize=21;strokeWidth=3;" vertex="1" parent="1">
          <mxGeometry x="414.82000000000005" y="770" width="60" height="30" as="geometry" />
        </mxCell>
        <mxCell id="xDKq-XSVcTtl9me8uJHc-17" value="\(T_5\)" style="text;html=1;strokeColor=none;fillColor=none;align=center;verticalAlign=middle;whiteSpace=wrap;rounded=0;fontSize=21;strokeWidth=3;" vertex="1" parent="1">
          <mxGeometry x="604.82" y="770" width="60" height="30" as="geometry" />
        </mxCell>
        <mxCell id="xDKq-XSVcTtl9me8uJHc-18" value="\(T_6\)" style="text;html=1;strokeColor=none;fillColor=none;align=center;verticalAlign=middle;whiteSpace=wrap;rounded=0;fontSize=21;strokeWidth=3;" vertex="1" parent="1">
          <mxGeometry x="797" y="770" width="60" height="30" as="geometry" />
        </mxCell>
        <mxCell id="xDKq-XSVcTtl9me8uJHc-36" style="edgeStyle=orthogonalEdgeStyle;rounded=0;orthogonalLoop=1;jettySize=auto;html=1;entryX=0.5;entryY=0;entryDx=0;entryDy=0;strokeWidth=3;" edge="1" parent="1" source="xDKq-XSVcTtl9me8uJHc-19" target="xDKq-XSVcTtl9me8uJHc-2">
          <mxGeometry relative="1" as="geometry" />
        </mxCell>
        <mxCell id="xDKq-XSVcTtl9me8uJHc-19" value="jsem" style="text;html=1;strokeColor=none;fillColor=none;align=center;verticalAlign=middle;whiteSpace=wrap;rounded=0;strokeWidth=3;fontFamily=Courier New;fontSize=20;fontStyle=3" vertex="1" parent="1">
          <mxGeometry x="794.82" y="310" width="60" height="30" as="geometry" />
        </mxCell>
        <mxCell id="xDKq-XSVcTtl9me8uJHc-35" style="edgeStyle=orthogonalEdgeStyle;rounded=0;orthogonalLoop=1;jettySize=auto;html=1;entryX=0.5;entryY=0;entryDx=0;entryDy=0;strokeWidth=3;" edge="1" parent="1" source="xDKq-XSVcTtl9me8uJHc-21" target="xDKq-XSVcTtl9me8uJHc-1">
          <mxGeometry relative="1" as="geometry" />
        </mxCell>
        <mxCell id="xDKq-XSVcTtl9me8uJHc-21" value="JÃ¡" style="text;html=1;strokeColor=none;fillColor=none;align=center;verticalAlign=middle;whiteSpace=wrap;rounded=0;strokeWidth=3;fontFamily=Courier New;fontSize=20;fontStyle=3" vertex="1" parent="1">
          <mxGeometry x="604.82" y="310" width="60" height="30" as="geometry" />
        </mxCell>
        <mxCell id="xDKq-XSVcTtl9me8uJHc-37" style="edgeStyle=orthogonalEdgeStyle;rounded=0;orthogonalLoop=1;jettySize=auto;html=1;entryX=0.5;entryY=0;entryDx=0;entryDy=0;strokeWidth=3;" edge="1" parent="1" source="xDKq-XSVcTtl9me8uJHc-22" target="xDKq-XSVcTtl9me8uJHc-3">
          <mxGeometry relative="1" as="geometry" />
        </mxCell>
        <mxCell id="xDKq-XSVcTtl9me8uJHc-22" value="robot" style="text;html=1;strokeColor=none;fillColor=none;align=center;verticalAlign=middle;whiteSpace=wrap;rounded=0;strokeWidth=3;fontFamily=Courier New;fontSize=20;fontStyle=3" vertex="1" parent="1">
          <mxGeometry x="984.82" y="310" width="60" height="30" as="geometry" />
        </mxCell>
        <mxCell id="xDKq-XSVcTtl9me8uJHc-24" value="I" style="text;html=1;strokeColor=none;fillColor=none;align=center;verticalAlign=middle;whiteSpace=wrap;rounded=0;strokeWidth=3;fontFamily=Courier New;fontSize=20;fontStyle=3" vertex="1" parent="1">
          <mxGeometry x="414.82000000000005" y="630" width="60" height="30" as="geometry" />
        </mxCell>
        <mxCell id="xDKq-XSVcTtl9me8uJHc-25" value="am" style="text;html=1;strokeColor=none;fillColor=none;align=center;verticalAlign=middle;whiteSpace=wrap;rounded=0;strokeWidth=3;fontFamily=Courier New;fontSize=20;fontStyle=3" vertex="1" parent="1">
          <mxGeometry x="604.82" y="630" width="60" height="30" as="geometry" />
        </mxCell>
        <mxCell id="xDKq-XSVcTtl9me8uJHc-26" value="a" style="text;html=1;strokeColor=none;fillColor=none;align=center;verticalAlign=middle;whiteSpace=wrap;rounded=0;strokeWidth=3;fontFamily=Courier New;fontSize=20;fontStyle=3" vertex="1" parent="1">
          <mxGeometry x="794.82" y="630" width="60" height="30" as="geometry" />
        </mxCell>
        <mxCell id="xDKq-XSVcTtl9me8uJHc-33" style="edgeStyle=orthogonalEdgeStyle;rounded=0;orthogonalLoop=1;jettySize=auto;html=1;strokeWidth=3;" edge="1" parent="1" source="xDKq-XSVcTtl9me8uJHc-28" target="xDKq-XSVcTtl9me8uJHc-32">
          <mxGeometry relative="1" as="geometry" />
        </mxCell>
        <mxCell id="xDKq-XSVcTtl9me8uJHc-46" style="edgeStyle=orthogonalEdgeStyle;rounded=0;orthogonalLoop=1;jettySize=auto;html=1;strokeWidth=3;" edge="1" parent="1" source="xDKq-XSVcTtl9me8uJHc-28" target="xDKq-XSVcTtl9me8uJHc-30">
          <mxGeometry relative="1" as="geometry" />
        </mxCell>
        <mxCell id="xDKq-XSVcTtl9me8uJHc-28" value="&lt;font style=&quot;font-size: 16px;&quot;&gt;Decoder&lt;br style=&quot;border-color: var(--border-color);&quot;&gt;RNN&lt;/font&gt;" style="rounded=1;whiteSpace=wrap;html=1;strokeWidth=3;fillColor=#ffe6cc;strokeColor=#d79b00;" vertex="1" parent="1">
          <mxGeometry x="954.82" y="700" width="120" height="60" as="geometry" />
        </mxCell>
        <mxCell id="xDKq-XSVcTtl9me8uJHc-30" value="robot" style="text;html=1;strokeColor=none;fillColor=none;align=center;verticalAlign=middle;whiteSpace=wrap;rounded=0;strokeWidth=3;fontFamily=Courier New;fontSize=20;fontStyle=3" vertex="1" parent="1">
          <mxGeometry x="984.82" y="630" width="60" height="30" as="geometry" />
        </mxCell>
        <mxCell id="xDKq-XSVcTtl9me8uJHc-45" style="edgeStyle=orthogonalEdgeStyle;rounded=0;orthogonalLoop=1;jettySize=auto;html=1;strokeWidth=3;" edge="1" parent="1" source="xDKq-XSVcTtl9me8uJHc-32" target="xDKq-XSVcTtl9me8uJHc-34">
          <mxGeometry relative="1" as="geometry" />
        </mxCell>
        <mxCell id="xDKq-XSVcTtl9me8uJHc-32" value="&lt;font style=&quot;font-size: 16px;&quot;&gt;Decoder&lt;br style=&quot;border-color: var(--border-color);&quot;&gt;RNN&lt;/font&gt;" style="rounded=1;whiteSpace=wrap;html=1;strokeWidth=3;fillColor=#ffe6cc;strokeColor=#d79b00;" vertex="1" parent="1">
          <mxGeometry x="1144.8200000000002" y="700" width="120" height="60" as="geometry" />
        </mxCell>
        <mxCell id="xDKq-XSVcTtl9me8uJHc-34" value="&amp;lt;eos&amp;gt;" style="text;html=1;strokeColor=none;fillColor=none;align=center;verticalAlign=middle;whiteSpace=wrap;rounded=0;strokeWidth=3;fontFamily=Courier New;fontSize=20;fontStyle=2;fontColor=default;" vertex="1" parent="1">
          <mxGeometry x="1174.8200000000002" y="630" width="60" height="30" as="geometry" />
        </mxCell>
        <mxCell id="xDKq-XSVcTtl9me8uJHc-43" value="\(T_7\)" style="text;html=1;strokeColor=none;fillColor=none;align=center;verticalAlign=middle;whiteSpace=wrap;rounded=0;fontSize=21;strokeWidth=3;" vertex="1" parent="1">
          <mxGeometry x="984.82" y="770" width="60" height="30" as="geometry" />
        </mxCell>
        <mxCell id="xDKq-XSVcTtl9me8uJHc-44" value="\(T_8\)" style="text;html=1;strokeColor=none;fillColor=none;align=center;verticalAlign=middle;whiteSpace=wrap;rounded=0;fontSize=21;strokeWidth=3;" vertex="1" parent="1">
          <mxGeometry x="1174.8200000000002" y="770" width="60" height="30" as="geometry" />
        </mxCell>
        <mxCell id="xDKq-XSVcTtl9me8uJHc-51" value="Encoder" style="text;html=1;strokeColor=none;fillColor=none;align=center;verticalAlign=middle;whiteSpace=wrap;rounded=0;fontSize=35;" vertex="1" parent="1">
          <mxGeometry x="747" y="250" width="160.16" height="50" as="geometry" />
        </mxCell>
        <mxCell id="xDKq-XSVcTtl9me8uJHc-53" value="Decoder" style="text;html=1;strokeColor=none;fillColor=none;align=center;verticalAlign=middle;whiteSpace=wrap;rounded=0;fontSize=35;" vertex="1" parent="1">
          <mxGeometry x="754.83" y="570" width="160.16" height="50" as="geometry" />
        </mxCell>
      </root>
    </mxGraphModel>
  </diagram>
</mxfile>
